<?xml version="1.0" encoding="utf-8"?>

<!DOCTYPE svg PUBLIC "-//W3C//DTD SVG 1.1//EN" "http://www.w3.org/Graphics/SVG/1.1/DTD/svg11.dtd">
<!-- Uploaded to: SVG Repo, www.svgrepo.com, Generator: SVG Repo Mixer Tools -->
<svg height="16" width="16" version="1.1" id="_x32_" xmlns="http://www.w3.org/2000/svg" xmlns:xlink="http://www.w3.org/1999/xlink"
	 viewBox="0 0 512 512"  xml:space="preserve">
<style type="text/css">
	.st0{fill:#000000;}
</style>
<g>
	<path class="st0" d="M293.686,333.324c5.976,52.529,58.497,59.684,74.014,59.684c15.521,0,68.042-7.155,74.01-59.684
		c-9.545,8.358-40.582,22.691-74.01,22.691C334.276,356.014,303.239,341.681,293.686,333.324z"/>
	<path class="st0" d="M312.681,272.069c12.31,1.33,23.671,5.338,33.591,11.37c0.394-17.695-12.824-33.041-30.747-34.969
		c-17.827-1.92-33.926,10.126-37.423,27.344C288.894,272.189,300.622,270.778,312.681,272.069z"/>
	<path class="st0" d="M389.129,283.439c9.919-6.032,21.285-10.039,33.587-11.37c12.067-1.291,23.786,0.12,34.579,3.745
		c-3.498-17.218-19.596-29.264-37.42-27.344C401.948,250.398,388.73,265.744,389.129,283.439z"/>
	<path class="st0" d="M511.724,171.919c0,0-0.02-0.216-0.036-0.327l-0.02-0.104l-0.02-0.144c-0.948-6.86-5.975-12.389-13.05-13.106
		c-5.765-0.59-11.586,2.35-17.119,3.673c-11.405,2.693-22.97,4.74-34.535,6.462c-30.085,4.478-60.56,6.549-90.964,5.832
		c-23.604-0.55-47.223-2.621-70.552-6.278c-8.7-36.101-23.006-95.259-27.058-112.023c-0.82-3.402-1.43-8.724-8.29-3.792
		c-4.96,3.593-54.665,28.874-118.249,44.243C68.247,111.724,12.475,111.916,6.42,111c-8.346-1.275-6.466,3.744-5.641,7.146
		C5.133,136.16,21.294,203.039,29.7,237.777c20.496,84.87,111.994,128.117,164.213,115.489c11.242-2.717,22.918-8.573,34.125-16.939
		c11.282,46.108,43.136,86.902,84.714,109.784c13.413,7.378,28.077,12.979,43.311,15.027c14.935,2.023,29.942-0.167,44.14-5.02
		c27.938-9.56,52.665-28.213,71.624-50.649c18.481-21.886,31.731-48.227,37.172-76.408c2.506-12.964,2.848-25.934,2.848-39.073
		V186.977C511.848,182.029,512.262,176.842,511.724,171.919z M61.156,185.351c11.358,0.972,23.082-0.398,34.487-4.493
		c11.656-4.176,21.776-10.733,29.99-18.932c4.534,17.098-4.705,35.129-21.679,41.2C87.086,209.182,68.606,201.262,61.156,185.351z
		 M223.564,256.612c-13.808-2.852-33.539-3.991-52.84,0.685c-28.596,6.908-52.18,25.576-58.625,34.691
		c-5.744-46.156,37.694-63.134,50.98-66.354c10.202-2.47,40.001-5.832,60.485,12.629V256.612z M231.835,159.648
		c-1.932,3.928-4.581,7.466-7.844,10.406c-5.008,4.526-11.405,7.633-18.6,8.581c-17.875,2.327-34.324-9.489-38.108-26.794
		c11.07,3.554,23.046,4.764,35.328,3.171c12.019-1.57,23.082-5.705,32.734-11.76C235.564,149.083,234.289,154.677,231.835,159.648z
		 M488.574,284.937c0,12.708,0.16,25.337-2.079,37.91c-1.933,10.867-5.247,21.448-9.72,31.519c-0.056,0.104-0.112,0.231-0.164,0.358
		c-0.015,0.048-0.055,0.104-0.071,0.175c-0.088,0.183-0.164,0.374-0.251,0.557c-0.159,0.374-0.339,0.749-0.518,1.14
		c0.048-0.144,0.123-0.263,0.179-0.415c-11.354,24.644-29.67,46.164-51.892,61.66c-12.302,8.589-26.109,15.593-40.813,18.939
		c-13.732,3.155-27.284,1.825-40.57-2.701c-27.826-9.506-52.032-29.814-69.01-53.526c-13.286-18.564-22.277-40.076-25.496-62.576
		c-0.88-6.103-1.326-12.302-1.326-18.516V184.149c14.274,3.513,28.83,6.102,43.438,8.07c9.314,1.275,18.676,2.295,27.986,3.14
		c31.193,2.805,62.548,2.964,93.757,0.43c25.66-2.079,51.514-5.497,76.551-11.656V284.937z"/>
</g>
</svg>