<?xml version="1.0" encoding="UTF-8" standalone="no"?>
<!DOCTYPE svg PUBLIC "-//W3C//DTD SVG 1.1//EN" "http://www.w3.org/Graphics/SVG/1.1/DTD/svg11.dtd">
<svg width="100%" height="100%" viewBox="0 0 426 426" version="1.1" xmlns="http://www.w3.org/2000/svg" xmlns:xlink="http://www.w3.org/1999/xlink" xml:space="preserve" xmlns:serif="http://www.serif.com/" style="fill-rule:evenodd;clip-rule:evenodd;stroke-linejoin:round;stroke-miterlimit:2;">
    <g transform="matrix(1,0,0,1,-9524.58,-6664.41)">
        <g id="Chat-Logo" serif:id="Chat Logo" transform="matrix(0.638915,0,0,0.733035,4197.81,6994.1)">
            <rect x="8337.21" y="-449.768" width="665.498" height="580.05" style="fill:none;"/>
            <clipPath id="_clip1">
                <rect x="8337.21" y="-449.768" width="665.498" height="580.05"/>
            </clipPath>
            <g clip-path="url(#_clip1)">
                <g id="circled" transform="matrix(1.37208,0,0,1.19591,-3760.61,-1024.49)">
                    <g transform="matrix(1,0,0,1,0.654562,0.051352)">
                        <circle cx="9058.81" cy="723.232" r="242.32" style="fill:white;"/>
                    </g>
                    <g transform="matrix(1,0,0,1,182.445,-126.777)">
                        <path d="M8947.42,895.77C8949.02,901.575 8954.31,905.597 8960.33,905.597C8976.08,905.597 9004.55,905.597 9017.61,905.597C9019.42,905.597 9021.14,904.838 9022.35,903.506C9023.57,902.173 9024.17,900.391 9024,898.594C9017.14,830.217 8960.28,776.576 8890.53,774.812L8886.97,774.767L8883.42,774.812C8809.01,776.694 8749.27,837.603 8749.27,912.466L8824.27,912.466C8824.27,877.838 8852.34,849.767 8886.97,849.767L8890.2,849.848C8917.62,851.24 8940.39,870.243 8947.42,895.77Z" style="fill:rgb(53,83,115);"/>
                    </g>
                    <g transform="matrix(1,0,0,1,183.673,-126.777)">
                        <path d="M8698.91,945.989L8847.64,945.989C8842.07,933.539 8839.45,918.452 8837.8,903.496C8832.01,850.844 8841.55,822.429 8841.55,793.277C8841.55,764.125 8839.73,748.025 8824.86,725.885C8813.43,708.877 8792.55,692.46 8790.9,677.712C8790.18,671.952 8790.93,667.824 8785.96,663.591C8779.28,657.899 8762.49,673.206 8758.24,678.199C8740.87,698.633 8736.92,718.244 8750.42,749.44C8755.02,760.225 8767.13,769.954 8766.76,793.277C8766.6,803.002 8764.22,791.511 8762.71,820.486L8698.91,820.486L8698.91,945.989Z" style="fill:white;"/>
                    </g>
                    <g transform="matrix(1,0,0,1,182.445,-126.777)">
                        <path d="M8886.97,1050.17L8890.53,1050.12C8960.4,1048.35 9017.34,994.529 9024.02,925.998C9024.17,924.292 9023.6,922.601 9022.44,921.338C9021.28,920.074 9019.65,919.354 9017.94,919.354C9004.58,919.336 8974.18,919.336 8958.71,919.336C8953.55,919.336 8949.05,922.831 8947.77,927.829C8940.93,955.03 8916.3,975.166 8886.97,975.166C8845.93,975.166 8836.54,938.961 8832.64,903.496C8826.84,850.844 8836.38,822.364 8836.38,793.212C8836.38,764.059 8834.56,747.959 8819.69,725.82C8808.26,708.811 8790.54,702.021 8784.85,688.316C8781.5,680.237 8780.04,664.223 8776.56,662.275C8771.35,659.356 8757.32,673.14 8753.07,678.134C8735.7,698.568 8743.23,723.062 8752.85,744.045C8757.74,754.705 8761.96,769.888 8761.59,793.212C8761.21,816.535 8748.02,885.103 8764.84,949.157C8779.96,1006.76 8815.43,1050.17 8886.97,1050.17Z" style="fill:rgb(33,82,26);"/>
                        <clipPath id="_clip2">
                            <path d="M8886.97,1050.17L8890.53,1050.12C8960.4,1048.35 9017.34,994.529 9024.02,925.998C9024.17,924.292 9023.6,922.601 9022.44,921.338C9021.28,920.074 9019.65,919.354 9017.94,919.354C9004.58,919.336 8974.18,919.336 8958.71,919.336C8953.55,919.336 8949.05,922.831 8947.77,927.829C8940.93,955.03 8916.3,975.166 8886.97,975.166C8845.93,975.166 8836.54,938.961 8832.64,903.496C8826.84,850.844 8836.38,822.364 8836.38,793.212C8836.38,764.059 8834.56,747.959 8819.69,725.82C8808.26,708.811 8790.54,702.021 8784.85,688.316C8781.5,680.237 8780.04,664.223 8776.56,662.275C8771.35,659.356 8757.32,673.14 8753.07,678.134C8735.7,698.568 8743.23,723.062 8752.85,744.045C8757.74,754.705 8761.96,769.888 8761.59,793.212C8761.21,816.535 8748.02,885.103 8764.84,949.157C8779.96,1006.76 8815.43,1050.17 8886.97,1050.17Z"/>
                        </clipPath>
                        <g clip-path="url(#_clip2)">
                            <path d="M8751.53,912.466L8749.27,912.466C8749.27,837.603 8809.01,776.694 8883.42,774.812L8886.97,774.767L8890.53,774.812C8960.58,776.584 9017.64,830.686 9024.08,899.49C9024.22,901.06 9023.69,902.615 9022.62,903.776C9022.03,904.422 9021.3,904.914 9020.5,905.222C9022.86,916.508 9024.1,928.262 9024.1,940.339C9024.1,1025.21 8962.53,1094.11 8886.69,1094.11C8810.85,1094.11 8749.27,1025.21 8749.27,940.339C8749.27,930.825 8750.05,921.512 8751.53,912.466Z" style="fill-opacity:0.3;"/>
                        </g>
                    </g>
                    <g transform="matrix(1.38895,0,0,1.38214,-3220.51,-476.68)">
                        <path d="M8762.32,753.404C8761.28,759.065 8762.46,764.295 8764.6,769.465C8766.08,773.023 8768,776.461 8770.05,779.907C8771.35,782.085 8772.62,784.269 8773.97,786.388C8774.8,787.683 8775.71,788.91 8776.5,790.195C8780.5,795.968 8783.55,801.31 8784.41,813.654C8784.6,816.431 8784.69,819.536 8784.6,823.061C8784.55,825.029 8784.43,827.122 8784.27,829.355C8783.77,835.896 8782.82,843.621 8781.49,852.875C8777.7,878.137 8776.32,918.366 8790.02,947.715C8798.89,966.706 8814.06,981.166 8839.09,984.032C8814.13,981.057 8799.01,966.595 8790.29,947.589C8776.84,918.264 8778.62,878.179 8782.61,853.05C8784.49,841.862 8785.59,832.884 8786.34,825.563C8786.7,822.132 8786.99,819.071 8787.18,816.296C8787.42,812.702 8787.53,809.618 8787.45,806.871C8787.18,797.707 8785.02,792.473 8782.16,786.799C8781.41,785.461 8780.65,784.101 8779.75,782.826C8778.44,780.986 8776.95,779.277 8775.48,777.546C8771.83,773.273 8768.1,769.204 8765.57,764.559C8763.7,761.118 8762.45,757.514 8762.32,753.404Z" style="fill:white;"/>
                    </g>
                </g>
                <g transform="matrix(0.280628,0,0,0.244596,8628.97,-408.737)">
                    <path d="M770.831,604.205C789.188,578.177 800.028,547.38 800,514.608C800.028,473.772 783.198,436.203 756.034,406.739C728.83,377.192 691.358,355.175 648.334,343.452L637.031,385.016C672.959,394.777 703.377,413.063 724.313,435.894C745.306,458.808 756.891,485.678 756.919,514.608C756.891,537.886 749.402,559.736 735.588,579.425C721.789,599.058 701.538,616.32 676.647,629.069L658.459,638.381L682.033,691.095C610.597,678.655 544.323,655.461 510.806,642.405L510.147,642.153L509.473,641.942C464.528,627.848 429.47,600.139 411.619,567.408L373.839,588.134C398.016,632.056 441.881,665.405 495.213,682.555L495.213,682.569C536.667,698.627 623.766,729.169 715.27,739.406L752.684,743.558L714.008,657.061C736.698,642.753 756.191,625.014 770.831,604.205Z" style="fill:rgb(53,83,115);fill-rule:nonzero;"/>
                    <path d="M561.025,448.108C595.97,408.223 617.147,358.638 617.119,305.039C617.133,269.994 608.088,236.52 592.017,206.495C567.883,161.409 528.238,123.981 479.183,97.756C430.114,71.547 371.469,56.456 308.559,56.442C224.7,56.47 148.383,83.228 92.247,127.583C64.186,149.781 41.173,176.442 25.102,206.494C9.031,236.522 -0.014,269.995 0,305.041C-0.028,349.761 14.739,391.791 39.953,427.564C61.508,458.205 90.691,484.388 125.091,504.877L73.273,620.752L110.689,616.602C239.889,602.156 363.617,558.839 422.347,536.092C478.188,518.267 526.344,487.737 561.025,448.108ZM407.411,495.677L406.752,495.928C355.917,515.703 253.055,551.617 143.769,568.641L180.805,485.817L162.616,476.506C125.917,457.716 95.85,432.164 75.178,402.77C54.494,373.336 43.106,340.269 43.078,305.042C43.092,277.388 50.105,251.122 63.091,226.805C82.527,190.402 115.664,158.497 158.227,135.764C200.772,113.017 252.562,99.514 308.558,99.527C383.219,99.498 450.405,123.564 498.155,161.37C522.038,180.273 541.053,202.53 554.025,226.803C566.997,251.12 574.022,277.388 574.036,305.041C574.009,347.195 557.672,386.419 528.6,419.752C499.558,453.002 457.669,479.872 408.083,495.466L407.411,495.677Z" style="fill:rgb(53,83,115);fill-rule:nonzero;"/>
                    <path d="M186.848,277.623C168.352,277.623 153.347,292.628 153.347,311.139C153.347,329.636 168.352,344.642 186.848,344.642C205.361,344.642 220.366,329.638 220.366,311.139C220.366,292.63 205.361,277.623 186.848,277.623Z" style="fill:rgb(53,83,115);fill-rule:nonzero;"/>
                    <path d="M316.091,277.623C297.594,277.623 282.588,292.628 282.588,311.139C282.588,329.636 297.592,344.642 316.091,344.642C334.602,344.642 349.606,329.638 349.606,311.139C349.606,292.63 334.602,277.623 316.091,277.623Z" style="fill:rgb(53,83,115);fill-rule:nonzero;"/>
                    <path d="M445.331,277.623C426.834,277.623 411.828,292.628 411.828,311.139C411.828,329.636 426.833,344.642 445.331,344.642C463.842,344.642 478.847,329.638 478.847,311.139C478.847,292.63 463.842,277.623 445.331,277.623Z" style="fill:rgb(53,83,115);fill-rule:nonzero;"/>
                </g>
            </g>
        </g>
    </g>
</svg>
